<svg xmlns="http://www.w3.org/2000/svg" width="256" height="256" viewBox="0 0 100 100"><path fill="#f5a623" d="M46.46 42.43L46.46 46.23Q46.46 49.10 45.75 51.35Q45.04 53.61 43.83 55.33Q42.62 57.06 41.04 58.28Q39.46 59.51 37.74 60.28Q36.01 61.05 34.26 61.41Q32.50 61.76 30.95 61.76L30.95 61.76L12.00 61.76L12.00 53.38L30.95 53.38Q32.57 53.25 33.87 52.72Q35.18 52.19 36.11 51.29Q37.04 50.39 37.56 49.11Q38.08 47.84 38.08 46.23L38.08 46.23L38.08 42.43Q37.92 40.85 37.40 39.53Q36.88 38.21 36.00 37.27Q35.11 36.34 33.85 35.80Q32.60 35.27 30.95 35.27L30.95 35.27L12.07 35.27Q10.39 35.27 9.52 36.14Q8.65 37.01 8.65 38.66L8.65 38.66L8.65 73.11L0.27 73.11L0.27 38.66Q0.27 35.43 1.45 33.18Q2.63 30.92 4.38 29.54Q6.14 28.15 8.20 27.52Q10.26 26.89 12.00 26.89L12.00 26.89L30.95 26.89Q33.79 26.89 36.05 27.62Q38.30 28.34 40.03 29.55Q41.75 30.76 42.96 32.34Q44.17 33.92 44.96 35.64Q45.75 37.37 46.10 39.12Q46.46 40.88 46.46 42.43L46.46 42.43ZM99.73 61.34L99.73 62.96Q99.73 64.50 99.19 66.27Q98.66 68.05 97.45 69.56Q96.25 71.08 94.31 72.09Q92.38 73.11 89.57 73.11L89.57 73.11L57.77 73.11Q56.86 73.11 56.09 72.78Q55.32 72.46 54.75 71.90Q54.19 71.33 53.87 70.56Q53.54 69.79 53.54 68.88L53.54 68.88L53.54 31.12Q53.54 30.25 53.87 29.47Q54.19 28.70 54.75 28.12Q55.32 27.54 56.09 27.22Q56.86 26.89 57.77 26.89L57.77 26.89L85.80 26.89Q87.35 26.89 89.12 27.44Q90.90 27.99 92.43 29.20Q93.96 30.41 94.97 32.34Q95.99 34.27 95.99 37.08L95.99 37.08L95.99 38.66Q95.99 40.88 95.25 43.44Q94.50 46.00 92.86 48.29L92.86 48.29Q94.28 49.16 95.52 50.39Q96.76 51.61 97.70 53.22Q98.63 54.83 99.18 56.86Q99.73 58.89 99.73 61.34L99.73 61.34ZM91.35 62.89L91.35 61.34Q91.35 59.70 90.83 58.40Q90.32 57.09 89.38 56.16Q88.45 55.22 87.13 54.72Q85.80 54.22 84.16 54.22L84.16 54.22L65.28 54.22L65.28 45.78L80.39 45.78Q82.03 45.78 83.35 45.28Q84.68 44.78 85.61 43.84Q86.54 42.91 87.04 41.60Q87.54 40.30 87.54 38.66L87.54 38.66L87.54 37.08Q87.54 35.27 85.80 35.27L85.80 35.27L61.92 35.27L61.92 64.73L89.57 64.73Q89.80 64.73 90.12 64.70Q90.44 64.66 90.70 64.50Q90.96 64.34 91.15 63.95Q91.35 63.57 91.35 62.89L91.35 62.89Z"></path></svg>